<svg width="1920" height="1080" viewBox="0 0 1920 1080" xmlns="http://www.w3.org/2000/svg">
  <defs>
    <!-- Define gradients -->
    <linearGradient id="redGradient" x1="0%" y1="0%" x2="100%" y2="100%">
      <stop offset="0%" style="stop-color:#ff0000;stop-opacity:0.8" />
      <stop offset="100%" style="stop-color:#cc0000;stop-opacity:0.4" />
    </linearGradient>
    
    <linearGradient id="yellowGradient" x1="0%" y1="0%" x2="100%" y2="100%">
      <stop offset="0%" style="stop-color:#ffcc00;stop-opacity:0.6" />
      <stop offset="100%" style="stop-color:#ff9900;stop-opacity:0.3" />
    </linearGradient>
    
    <!-- Define patterns -->
    <pattern id="gridPattern" x="0" y="0" width="60" height="60" patternUnits="userSpaceOnUse">
      <rect width="60" height="60" fill="none" stroke="#333333" stroke-width="0.5" opacity="0.2"/>
    </pattern>
    
    <pattern id="dotPattern" x="0" y="0" width="120" height="120" patternUnits="userSpaceOnUse">
      <circle cx="60" cy="60" r="1.5" fill="#666666" opacity="0.4"/>
    </pattern>
  </defs>
  
  <!-- Background -->
  <rect width="1920" height="1080" fill="#0a0a0a"/>
  
  <!-- Grid overlay -->
  <rect width="1920" height="1080" fill="url(#gridPattern)"/>
  
  <!-- Dot pattern overlay -->
  <rect width="1920" height="1080" fill="url(#dotPattern)"/>
  
  <!-- Abstract geometric shapes -->
  
  <!-- Large background hexagon -->
  <path d="M 400 200 L 600 100 L 800 200 L 800 400 L 600 500 L 400 400 Z" 
        fill="none" 
        stroke="#333333" 
        stroke-width="2" 
        opacity="0.1"/>
  
  <!-- Red accent triangle -->
  <path d="M 1200 300 L 1400 500 L 1000 500 Z" 
        fill="url(#redGradient)" 
        opacity="0.15"/>
  
  <!-- Yellow accent polygon -->
  <path d="M 1500 600 L 1700 650 L 1750 850 L 1550 900 L 1450 750 Z" 
        fill="url(#yellowGradient)" 
        opacity="0.12"/>
  
  <!-- Circuit-like lines -->
  <g stroke="#444444" stroke-width="1" fill="none" opacity="0.3">
    <path d="M 100 800 L 300 800 L 300 700 L 500 700"/>
    <circle cx="300" cy="800" r="3" fill="#666666"/>
    <circle cx="500" cy="700" r="3" fill="#666666"/>
    
    <path d="M 1600 200 L 1600 350 L 1750 350"/>
    <circle cx="1600" cy="350" r="3" fill="#666666"/>
  </g>
  
  <!-- Minimalist tech elements -->
  <g opacity="0.2">
    <!-- Binary-inspired dots -->
    <rect x="150" y="450" width="4" height="20" fill="#666666"/>
    <rect x="160" y="450" width="4" height="20" fill="#666666"/>
    <rect x="180" y="450" width="4" height="20" fill="#666666"/>
    <rect x="190" y="450" width="4" height="20" fill="#666666"/>
    
    <rect x="1400" y="150" width="4" height="20" fill="#666666"/>
    <rect x="1420" y="150" width="4" height="20" fill="#666666"/>
    <rect x="1430" y="150" width="4" height="20" fill="#666666"/>
  </g>
  
  <!-- Subtle red accent line -->
  <line x1="0" y1="540" x2="300" y2="540" stroke="#cc0000" stroke-width="2" opacity="0.3"/>
  
  <!-- Subtle yellow accent line -->
  <line x1="1620" y1="0" x2="1620" y2="200" stroke="#ffcc00" stroke-width="2" opacity="0.3"/>
  
  <!-- Corner accents -->
  <path d="M 0 0 L 150 0 L 0 150 Z" fill="#1a1a1a" opacity="0.5"/>
  <path d="M 1920 1080 L 1770 1080 L 1920 930 Z" fill="#1a1a1a" opacity="0.5"/>
</svg>